<svg viewBox="0 0 240 300" xmlns="http://www.w3.org/2000/svg" role="img" aria-label="Dianne Cole — ink sketch" fill="none" stroke="#e8b45a" stroke-width="2.2" stroke-linecap="round" stroke-linejoin="round">
  <!-- hand-ruled margin frame, gap on the right edge -->
  <g stroke-width="1.1" opacity="0.5">
    <path d="M18 16 C 78 14.6, 158 15.8, 222 15.2"/>
    <path d="M222.4 15.2 C 223.4 48, 221.8 84, 222.6 116"/>
    <path d="M222 152 C 223 196, 221.4 244, 222.4 285"/>
    <path d="M222.4 285 C 158 286.4, 88 285.2, 18.4 286.2"/>
    <path d="M18.4 286.2 C 17.4 212, 19 102, 18 16"/>
  </g>
  <!-- three-quarter face, ~60 -->
  <path d="M96 56 C 88 68, 84 80, 85 92 C 85.5 99, 81 104, 80 110 C 79.5 113.5, 83 115, 84.5 118 C 83.5 122, 86 125, 85 128 C 87 135, 94 139, 102 140 C 108 143, 116 144, 124 142"/>
  <path d="M97.6 57.4 C 90 69, 86 80.6, 86.8 91.4 C 87.2 98.6, 82.6 103.8, 81.8 109.6" stroke-width="1.5" opacity="0.35"/>
  <path d="M124 142 C 134 138, 142 130, 146 120" stroke-width="2"/>
  <!-- hair mass, swept back -->
  <path d="M96 52 C 122 40, 152 44, 166 66 C 174 80, 175 98, 170 114 C 168 122, 164 129, 158 134"/>
  <path d="M98.4 50.2 C 124 38.6, 153 42.8, 167.6 64.4" stroke-width="1.5" opacity="0.35"/>
  <path d="M100 50 C 120 42, 144 46, 158 62" stroke-width="1.4" opacity="0.55"/>
  <path d="M92 62 C 90 76, 89 92, 92 106" stroke-width="1.4" opacity="0.5"/>
  <path d="M146 116 C 149 124, 148 132, 144 138" stroke-width="1.4" opacity="0.55"/>
  <!-- reading glasses pushed up in the hair -->
  <g stroke-width="1.8">
    <circle cx="106" cy="59" r="9.5"/>
    <circle cx="130" cy="55.5" r="9.5"/>
    <path d="M115.5 58 C 118 57, 119.5 56.6, 120.8 56.4"/>
    <path d="M139.5 55 C 147 55.4, 153 59.4, 157 65.4"/>
    <circle cx="106" cy="59" r="8" fill="#e8b45a" fill-opacity="0.15" stroke="none"/>
    <circle cx="130" cy="55.5" r="8" fill="#e8b45a" fill-opacity="0.15" stroke="none"/>
  </g>
  <!-- brows, eyes, nose, mouth: three-quarter -->
  <path d="M100 84 C 106 81.5, 113 81.5, 118 84" stroke-width="2.4"/>
  <path d="M126 82 C 131 80.5, 137 81, 141 83" stroke-width="2.2"/>
  <path d="M101 93 C 105 91.8, 110 92, 113 93.5" stroke-width="1.8"/>
  <path d="M128 92 C 132 90.8, 136 91, 139 92.5" stroke-width="1.8"/>
  <path d="M120 92 C 119 100, 116 106, 112 111 C 114 113.5, 118 114, 121 113"/>
  <path d="M112 124 C 117 126, 124 126, 129 124" stroke-width="2"/>
  <!-- age: cheek crease, eye-corner lines -->
  <path d="M107 116 C 104 121, 103 126, 104.5 130" stroke-width="1.4" opacity="0.6"/>
  <path d="M143 90 L 148 88.5 M143.5 94 L 148.5 93.5" stroke-width="1.3" opacity="0.6"/>
  <!-- neck, shoulders, cardigan collar -->
  <path d="M104 142 C 102 154, 98 162, 90 168"/>
  <path d="M140 136 C 144 150, 150 160, 158 167"/>
  <path d="M56 198 C 88 178, 124 174, 156 179 C 176 182, 192 189, 203 198"/>
  <path d="M58 200.5 C 90 181, 125 177, 156 181.6" stroke-width="1.5" opacity="0.3"/>
  <path d="M104 176 C 112 184, 126 186, 138 182" stroke-width="1.6" opacity="0.6"/>
  <!-- prop: the EBUS schedule card, one date circled twice, pen pressed through -->
  <g stroke-width="1.6">
    <path d="M150 218 C 170 216.2, 192 215.6, 212 215.5 L 214.5 259 C 194 259.6, 172 260.4, 152.5 262 Z"/>
    <path d="M157 227 C 172 225.8, 188 225.4, 205 225.2 M157 236 C 170 235, 184 234.6, 198 234.4 M157 245 C 168 244.2, 178 243.9, 187 243.8 M157 254 C 170 253, 184 252.6, 200 252.4" stroke-width="1.1" opacity="0.55"/>
    <path d="M180 240 C 180 234.6, 186 231.6, 193 232.4 C 200 233.2, 205 237, 204.4 241.4 C 203.8 246, 197 248.6, 190 247.6 C 183.6 246.8, 179.8 244, 180 240 Z" stroke-width="2.6"/>
    <path d="M182 238 C 183 233.8, 189 231, 195 232.2 C 201.6 233.6, 206.4 238, 205.2 242.6 C 204 247.4, 196 249.8, 189 248.2" stroke-width="1.7" opacity="0.6"/>
    <ellipse cx="192" cy="240" rx="7" ry="3.6" fill="#e8b45a" fill-opacity="0.15" stroke="none"/>
  </g>
</svg>
