<svg viewBox="0 0 240 300" xmlns="http://www.w3.org/2000/svg" role="img" aria-label="Sam Cole — ink sketch" fill="none" stroke="currentColor" stroke-width="2.2" stroke-linecap="round" stroke-linejoin="round">
  <!-- hand-ruled margin frame, gap on the right edge, low -->
  <g stroke-width="1.1" opacity="0.5">
    <path d="M18 15.2 C 86 16.6, 152 14.6, 222 15.6"/>
    <path d="M222 15.6 C 222.8 74, 221.6 130, 222.6 188"/>
    <path d="M222.2 222 C 223 244, 221.8 266, 222.4 285.6"/>
    <path d="M222.4 285.6 C 156 284.6, 88 286.6, 18.2 285.4"/>
    <path d="M18.2 285.4 C 17.4 198, 19 100, 18 15.2"/>
  </g>
  <!-- slim hood, up -->
  <path d="M84 100 C 82 68, 108 50, 134 52 C 158 54, 174 74, 170 104 C 168 124, 160 140, 150 152"/>
  <path d="M86.4 97 C 85 67, 110 52.4, 134.6 54.4 C 156.6 56.2, 171.4 74.6, 167.8 102.6" stroke-width="1.5" opacity="0.35"/>
  <path d="M100 70 C 94 86, 93 104, 98 120 C 102 132, 110 142, 120 147" stroke-width="1.9"/>
  <path d="M100 70 C 112 58, 128 55, 142 60" stroke-width="1.9"/>
  <!-- drawstrings -->
  <path d="M118 150 C 117 158, 118 166, 120 172" stroke-width="1.5" opacity="0.7"/>
  <path d="M126 152 C 126 160, 127 167, 129 173" stroke-width="1.5" opacity="0.7"/>
  <!-- young face: soft profile edge, eyes down toward the phone -->
  <path d="M112 82 C 106.5 87, 103.5 93, 104.5 99 C 105 104, 101 108, 99.8 112 C 99.2 114.8, 102.4 116, 103.6 118.2 C 102.8 120.8, 104.6 123, 104 125 C 105.4 127.6, 106.6 128.4, 108.4 128.8"/>
  <path d="M113.6 83.6 C 108.4 88.2, 105.6 93.8, 106.4 99.2" stroke-width="1.4" opacity="0.35"/>
  <path d="M108 91 C 113 89, 118 89.5, 122 91" stroke-width="2.3"/>
  <path d="M108 98.5 C 111 97.9, 114.5 98.1, 117 99.1" stroke-width="1.7"/>
  <path d="M108 121 C 112 122.5, 117 122.5, 121 121.5" stroke-width="1.9"/>
  <path d="M108 128 C 114 137, 124 142, 134 143"/>
  <path d="M109.4 130.4 C 115.2 138.6, 124.4 143.4, 133 144.4" stroke-width="1.4" opacity="0.3"/>
  <!-- narrow shoulders -->
  <path d="M58 200 C 88 182, 120 178, 148 182 C 168 185, 184 191, 196 200"/>
  <path d="M60 202.4 C 90 185, 121 181.2, 147 184.8" stroke-width="1.5" opacity="0.3"/>
  <!-- arm raised, holding the phone out toward the viewer -->
  <path d="M150 186 C 158 196, 164 206, 168 216"/>
  <path d="M168 216 C 170 222, 172 227, 173 230.5" stroke-width="2"/>
  <path d="M166 236 C 168 233, 171 231.5, 174 232" stroke-width="1.7"/>
  <path d="M164 242 C 166 239.5, 168.6 238.2, 171 238.4" stroke-width="1.5" opacity="0.6"/>
  <!-- prop: the phone, face-on -->
  <g stroke-width="1.9">
    <path d="M163 231 C 174 229.8, 186 230.2, 192 231.5 C 195.5 232.3, 197 235, 197 239 L 196.5 274 C 196.4 279, 194 281.7, 189.5 282 C 179 283, 168 282.6, 163.5 281.8 C 159.5 281, 158 278.4, 158 274.5 L 158.6 238.5 C 158.7 234, 160 231.6, 163 231 Z"/>
    <path d="M164.6 233.2 C 175 232.2, 185.6 232.6, 191.2 233.7" stroke-width="1.2" opacity="0.45"/>
    <circle cx="178" cy="238.5" r="2" stroke-width="1.5"/>
    <path d="M162.5 244.5 C 172 243.6, 184 243.8, 192.5 244.3 L 192 275.5 C 183 276.4, 171 276.2, 162.2 275.6 Z" fill="currentColor" fill-opacity="0.15" stroke="none"/>
  </g>
</svg>
