<svg viewBox="0 0 240 300" xmlns="http://www.w3.org/2000/svg" role="img" aria-label="Tam Osei — ink sketch" fill="none" stroke="currentColor" stroke-width="2.2" stroke-linecap="round" stroke-linejoin="round">
  <!-- hand-ruled margin frame, gap on the right edge, high -->
  <g stroke-width="1.1" opacity="0.5">
    <path d="M18 15.4 C 80 16.6, 158 14.6, 222 15.8"/>
    <path d="M222 15.8 C 222.8 34, 221.8 52, 222.4 68"/>
    <path d="M222.2 104 C 223.2 166, 221.6 230, 222.6 285.2"/>
    <path d="M222.6 285.2 C 156 286.4, 86 284.8, 18.4 286"/>
    <path d="M18.4 286 C 17.4 196, 19.2 98, 18 15.4"/>
  </g>
  <!-- ball cap: brim, crown, seam, button -->
  <path d="M74 82 C 90 75, 108 72.5, 122 74.5"/>
  <path d="M74 82 C 88 84.5, 104 85, 118 83" stroke-width="1.8"/>
  <path d="M76.6 79.6 C 91.6 73, 108.6 70.6, 121.6 72.4" stroke-width="1.4" opacity="0.35"/>
  <path d="M118 76 C 120 58, 138 48, 154 52 C 170 56, 178 70, 176 88 C 175 96, 172 102, 168 106"/>
  <path d="M120.4 74 C 122.6 57, 139.4 48, 154.6 51.8" stroke-width="1.5" opacity="0.35"/>
  <path d="M138 50 C 136 62, 135 74, 136 84" stroke-width="1.4" opacity="0.55"/>
  <circle cx="147" cy="49" r="1.6" stroke-width="1.4"/>
  <path d="M168 106 C 172 100, 174 92, 174 86" stroke-width="1.4" opacity="0.5"/>
  <!-- kind heavy face: full cheek, gentle mouth, double chin -->
  <path d="M104 90 C 110 88, 116 88.4, 121 90" stroke-width="2.5"/>
  <path d="M104 98 C 108 97, 112 97.2, 115 98.4" stroke-width="1.8"/>
  <path d="M116 95 L 120 93" stroke-width="1.4" opacity="0.7"/>
  <path d="M112 90 C 111 99, 107 106, 103 110.5 C 106 113.6, 111 114.4, 115 113.4"/>
  <path d="M104 116 C 103 121, 104 126, 107 129.5" stroke-width="1.4" opacity="0.6"/>
  <path d="M108 124 C 113 126.5, 120 126.5, 125 124.5" stroke-width="2"/>
  <path d="M108 132 C 114 141, 125 147, 137 147.5"/>
  <path d="M109.6 134.4 C 115.6 142.8, 126 148.4, 136 149" stroke-width="1.4" opacity="0.3"/>
  <path d="M110 138 C 116 143, 124 146, 131 146" stroke-width="1.3" opacity="0.5"/>
  <path d="M126 108 C 130 114, 131 121, 129 128" stroke-width="1.2" opacity="0.4"/>
  <!-- ear, back of head under the cap -->
  <path d="M146 104 C 153 100, 156 110, 149 117 C 145 119.5, 142.5 114, 145 110" stroke-width="1.9"/>
  <path d="M168 106 C 165 120, 158 132, 149 140"/>
  <!-- thick neck, jacket collar, shoulders -->
  <path d="M110 140 C 108 150, 105 158, 99 164"/>
  <path d="M148 142 C 151 152, 155 160, 162 166"/>
  <path d="M96 172 C 110 181, 128 183, 144 178" stroke-width="1.6" opacity="0.65"/>
  <path d="M50 198 C 84 177, 122 172, 156 178 C 178 181, 194 189, 205 199"/>
  <path d="M52 200.6 C 86 180, 122.6 175.4, 155 181" stroke-width="1.5" opacity="0.3"/>
  <!-- prop: the mileage log, folded once, columns showing -->
  <g stroke-width="1.6">
    <path d="M150 232 C 170 228, 192 227, 212 229 L 210 262 C 191 260, 170 261, 152 264 Z"/>
    <path d="M151.5 247.5 C 171 244.5, 192 244, 210.5 245.5" stroke-width="2.2"/>
    <path d="M153 236 C 172 232.5, 192 232, 209 233.5" stroke-width="1.1" opacity="0.45"/>
    <path d="M168 230.5 L 167 262.4 M186 228.8 L 185.2 260.8" stroke-width="1" opacity="0.5"/>
    <path d="M157 240 L 164 239.4 M172 238.6 L 181 238 M191 237.6 L 200 237.2" stroke-width="1.2" opacity="0.6"/>
    <path d="M157 254 L 163 253.5 M172 252.6 L 180 252.2" stroke-width="1.2" opacity="0.6"/>
    <path d="M191 251.8 L 199 251.5" stroke-width="2.4"/>
    <ellipse cx="195" cy="251.6" rx="5.5" ry="2.2" fill="currentColor" fill-opacity="0.15" stroke="none"/>
  </g>
</svg>
